<svg width="33" height="32" viewBox="0 0 33 32" fill="none" xmlns="http://www.w3.org/2000/svg">
<rect x="0.333496" width="32" height="32" rx="16" fill="white"/>
<path d="M14.826 20.485C18.1356 20.485 20.8185 17.8021 20.8185 14.4925C20.8185 11.1829 18.1356 8.5 14.826 8.5C11.5164 8.5 8.8335 11.1829 8.8335 14.4925C8.8335 17.8021 11.5164 20.485 14.826 20.485Z" fill="#05422C" stroke="#05422C" stroke-width="1.5" stroke-linecap="round" stroke-linejoin="round"/>
<path d="M17.0684 21.91C17.7434 22.8625 18.8459 23.485 20.1059 23.485C22.1534 23.485 23.8184 21.82 23.8184 19.7725C23.8184 18.5275 23.2034 17.425 22.2659 16.75" stroke="#C3D2CC" stroke-width="1.5" stroke-linecap="round" stroke-linejoin="round"/>
<path d="M13.3335 15.5504C13.3335 16.1279 13.7835 16.6004 14.331 16.6004H15.456C15.936 16.6004 16.326 16.1879 16.326 15.6854C16.326 15.1379 16.086 14.9429 15.7335 14.8154L13.9335 14.1854C13.5735 14.0579 13.3335 13.8629 13.3335 13.3154C13.3335 12.8129 13.7235 12.4004 14.2035 12.4004H15.3285C15.8835 12.4079 16.3335 12.8729 16.3335 13.4504" stroke="white" stroke-width="1.5" stroke-linecap="round" stroke-linejoin="round"/>
<path d="M14.8335 16.6377V17.1927" stroke="white" stroke-width="1.5" stroke-linecap="round" stroke-linejoin="round"/>
<path d="M14.8335 11.8076V12.3926" stroke="white" stroke-width="1.5" stroke-linecap="round" stroke-linejoin="round"/>
</svg>
