<svg width="35" height="34" viewBox="0 0 35 34" fill="none" xmlns="http://www.w3.org/2000/svg">
<rect x="0.5" width="34" height="34" rx="17" fill="white"/>
<path d="M27.0611 12.7258C27.5643 14.0389 27.8104 15.4889 27.8104 16.9993C27.8104 19.7912 26.9676 22.3756 25.2234 24.2703C23.4702 26.174 20.8708 27.3111 17.4993 27.3111C14.1278 27.3111 11.5277 26.174 9.77456 24.2703C8.03038 22.3762 7.1875 19.7912 7.1875 16.9993C7.1875 14.2074 8.03038 11.6224 9.77456 9.72831C11.5277 7.82462 14.1278 6.6875 17.5 6.6875C19.3033 6.6875 20.8859 7.01269 22.2362 7.60669C22.0354 7.74117 21.8735 7.92614 21.7668 8.143C21.6601 8.35986 21.6124 8.60098 21.6284 8.84212C20.4755 8.34437 19.1026 8.0625 17.5 8.0625C14.4544 8.0625 12.242 9.08 10.7873 10.6599C9.32219 12.2487 8.5625 14.4755 8.5625 16.9986C8.5625 19.5224 9.32288 21.7492 10.7866 23.3387C12.2413 24.9186 14.453 25.9361 17.4993 25.9361C20.5449 25.9361 22.7573 24.9186 24.2121 23.3387C25.6758 21.7499 26.4361 19.5231 26.4361 16.9993C26.4361 15.5844 26.1969 14.2631 25.7287 13.0943L26.7709 12.8337C26.8741 12.8083 26.9703 12.7719 27.0611 12.7258Z" fill="#060709"/>
<path d="M10.8263 17.2015C10.9552 17.0726 11.1301 17.0002 11.3124 17.0002C11.4947 17.0002 11.6695 17.0726 11.7984 17.2015C11.8967 17.2991 12.4536 17.6875 13.3749 17.6875C14.2961 17.6875 14.853 17.2991 14.9513 17.2015C15.081 17.0762 15.2546 17.007 15.4349 17.0085C15.6151 17.0101 15.7876 17.0824 15.915 17.2099C16.0425 17.3373 16.1148 17.5098 16.1164 17.69C16.1179 17.8703 16.0486 18.0439 15.9234 18.1736C15.5625 18.5345 14.6536 19.0625 13.3749 19.0625C12.0961 19.0625 11.1872 18.5345 10.8263 18.1736C10.6974 18.0447 10.625 17.8698 10.625 17.6875C10.625 17.5052 10.6974 17.3304 10.8263 17.2015ZM19.0763 17.2015C19.2052 17.0726 19.3801 17.0002 19.5624 17.0002C19.7447 17.0002 19.9195 17.0726 20.0484 17.2015C20.146 17.2991 20.7036 17.6875 21.6249 17.6875C22.5461 17.6875 23.103 17.2991 23.2013 17.2015C23.331 17.0762 23.5046 17.007 23.6849 17.0085C23.8651 17.0101 24.0376 17.0824 24.165 17.2099C24.2925 17.3373 24.3648 17.5098 24.3664 17.69C24.3679 17.8703 24.2986 18.0439 24.1734 18.1736C23.8125 18.5345 22.9036 19.0625 21.6249 19.0625C20.3461 19.0625 19.4372 18.5345 19.0763 18.1736C18.9474 18.0447 18.875 17.8698 18.875 17.6875C18.875 17.5052 18.9474 17.3304 19.0763 17.2015ZM16.1249 22.5C16.1249 22.1354 16.2697 21.7856 16.5276 21.5278C16.7854 21.2699 17.1352 21.125 17.4999 21.125C17.8645 21.125 18.2143 21.2699 18.4721 21.5278C18.73 21.7856 18.8749 22.1354 18.8749 22.5C18.8749 22.8647 18.73 23.2145 18.4721 23.4723C18.2143 23.7302 17.8645 23.875 17.4999 23.875C17.1352 23.875 16.7854 23.7302 16.5276 23.4723C16.2697 23.2145 16.1249 22.8647 16.1249 22.5ZM26.3645 8.36986C26.4231 8.25232 26.4469 8.12044 26.4329 7.98982C26.419 7.85921 26.3679 7.73532 26.2857 7.63283C26.2036 7.53034 26.0938 7.45354 25.9693 7.41151C25.8448 7.36948 25.711 7.36398 25.5835 7.39567L22.8335 8.08317C22.7446 8.10379 22.6606 8.1419 22.5866 8.19529C22.5126 8.24869 22.4499 8.31629 22.4023 8.39415C22.3547 8.47201 22.323 8.55858 22.3092 8.6488C22.2954 8.73902 22.2997 8.8311 22.3218 8.91965C22.3439 9.0082 22.3835 9.09145 22.4381 9.16456C22.4928 9.23766 22.5614 9.29915 22.6401 9.34544C22.7188 9.39173 22.8059 9.42189 22.8963 9.43416C22.9868 9.44643 23.0788 9.44057 23.1669 9.41692L24.4663 9.09173L23.0727 11.8802C23.0141 11.9978 22.9903 12.1296 23.0043 12.2603C23.0182 12.3909 23.0693 12.5148 23.1515 12.6173C23.2336 12.7197 23.3435 12.7966 23.4679 12.8386C23.5924 12.8806 23.7262 12.8861 23.8537 12.8544L26.6037 12.1669C26.6926 12.1463 26.7766 12.1082 26.8506 12.0548C26.9246 12.0014 26.9873 11.9338 27.0349 11.8559C27.0825 11.7781 27.1142 11.6915 27.128 11.6013C27.1418 11.5111 27.1376 11.419 27.1154 11.3304C27.0933 11.2419 27.0537 11.1586 26.9991 11.0855C26.9444 11.0124 26.8758 10.9509 26.7971 10.9047C26.7184 10.8584 26.6313 10.8282 26.5409 10.8159C26.4504 10.8037 26.3584 10.8095 26.2703 10.8332L24.9709 11.1584L26.3645 8.36986ZM19.9061 10.125C19.8149 10.125 19.7275 10.1613 19.663 10.2257C19.5986 10.2902 19.5624 10.3776 19.5624 10.4688C19.5624 10.56 19.5986 10.6474 19.663 10.7119C19.7275 10.7763 19.8149 10.8125 19.9061 10.8125H21.2811L19.6311 13.0125C19.5928 13.0636 19.5695 13.1243 19.5637 13.1879C19.558 13.2515 19.5701 13.3154 19.5986 13.3725C19.6272 13.4296 19.6711 13.4776 19.7254 13.5112C19.7797 13.5448 19.8423 13.5625 19.9061 13.5625H21.9686C22.0598 13.5625 22.1472 13.5263 22.2117 13.4619C22.2761 13.3974 22.3124 13.31 22.3124 13.2188C22.3124 13.1276 22.2761 13.0402 22.2117 12.9757C22.1472 12.9113 22.0598 12.875 21.9686 12.875H20.5936L22.2436 10.675C22.2819 10.624 22.3052 10.5632 22.311 10.4997C22.3167 10.4361 22.3046 10.3722 22.2761 10.3151C22.2475 10.258 22.2036 10.2099 22.1493 10.1764C22.095 10.1428 22.0324 10.125 21.9686 10.125H19.9061ZM16.1427 11.7352C16.1716 11.6488 16.2336 11.5774 16.315 11.5366C16.3965 11.4959 16.4908 11.4892 16.5772 11.5179L18.6397 12.2054C18.7026 12.2264 18.7581 12.2652 18.7994 12.317C18.8407 12.3689 18.8662 12.4315 18.8728 12.4975C18.8793 12.5635 18.8666 12.6299 18.8363 12.6889C18.8059 12.7478 18.7591 12.7967 18.7016 12.8297L16.9636 13.8238L18.2974 14.2686C18.3413 14.2819 18.3822 14.304 18.4175 14.3334C18.4529 14.3628 18.4819 14.399 18.503 14.4398C18.5241 14.4806 18.5368 14.5253 18.5404 14.5711C18.5439 14.6169 18.5382 14.663 18.5237 14.7066C18.5091 14.7502 18.4859 14.7904 18.4555 14.8249C18.4251 14.8594 18.3881 14.8874 18.3467 14.9073C18.3053 14.9273 18.2603 14.9387 18.2144 14.9409C18.1685 14.9432 18.1226 14.9362 18.0794 14.9204L16.0169 14.2329C15.954 14.2118 15.8986 14.1731 15.8572 14.1212C15.8159 14.0694 15.7904 14.0067 15.7839 13.9408C15.7773 13.8748 15.79 13.8083 15.8204 13.7494C15.8508 13.6905 15.8975 13.6416 15.955 13.6086L17.6924 12.6138L16.3586 12.169C16.2723 12.14 16.2011 12.0779 16.1605 11.9965C16.1199 11.915 16.1133 11.8208 16.142 11.7345L16.1427 11.7352Z" fill="#060709"/>
</svg>
