<svg width="101" height="32" viewBox="0 0 101 32" fill="none" xmlns="http://www.w3.org/2000/svg">
<g clip-path="url(#clip0_1_76)">
<path d="M12.634 11.4182V14.8364H20.792C20.5754 16.7273 19.9257 18.1818 18.9149 19.1273C17.7598 20.2909 15.8828 21.6 12.634 21.6C7.65261 21.6 3.75411 17.5273 3.75411 12.5091C3.75411 7.49091 7.58042 3.41818 12.634 3.41818C15.3052 3.41818 17.3267 4.50909 18.7706 5.89091L21.153 3.49091C19.1315 1.52727 16.3881 0 12.634 0C5.77555 0 0 5.6 0 12.5091C0 19.4182 5.77555 25.0182 12.634 25.0182C16.3159 25.0182 19.1315 23.7818 21.2974 21.5273C23.5354 19.2727 24.2573 16.0727 24.2573 13.5273C24.2573 12.7273 24.1851 12 24.1129 11.4182H12.634Z" fill="white" fill-opacity="0.5"/>
<path d="M34.3645 8.58182C29.9607 8.58182 26.2788 12 26.2788 16.6545C26.2788 21.3091 29.8885 24.7273 34.3645 24.7273C38.8406 24.7273 42.4503 21.3818 42.4503 16.7273C42.4503 12 38.8406 8.58182 34.3645 8.58182ZM34.3645 21.6C31.9099 21.6 29.8163 19.5636 29.8163 16.7273C29.8163 13.8182 31.9099 11.8545 34.3645 11.8545C36.8192 11.8545 38.9128 13.8182 38.9128 16.7273C38.9128 19.5636 36.8192 21.6 34.3645 21.6Z" fill="white" fill-opacity="0.5"/>
<path d="M73.8549 10.4H73.7105C72.9164 9.45455 71.4003 8.58182 69.451 8.58182C65.4081 8.58182 61.9428 12.0727 61.9428 16.6545C61.9428 21.1636 65.4081 24.7273 69.451 24.7273C71.4003 24.7273 72.9164 23.8545 73.7105 22.9091H73.8549V24.0727C73.8549 27.1273 72.1944 28.8 69.5954 28.8C67.4296 28.8 66.1301 27.2727 65.5525 25.8909L62.5204 27.2C63.3867 29.3091 65.7691 32 69.6676 32C73.7827 32 77.3202 29.5273 77.3202 23.5636V9.01818H73.9993V10.4H73.8549ZM69.812 21.6C67.3574 21.6 65.5525 19.4909 65.5525 16.7273C65.5525 13.8909 67.4296 11.8545 69.812 11.8545C72.1944 11.8545 74.0715 13.9636 74.0715 16.8C74.1437 19.5636 72.2666 21.6 69.812 21.6Z" fill="white" fill-opacity="0.5"/>
<path d="M52.341 8.58182C47.9371 8.58182 44.2552 12 44.2552 16.6545C44.2552 21.3091 47.8649 24.7273 52.341 24.7273C56.817 24.7273 60.4267 21.3818 60.4267 16.7273C60.4267 12 56.817 8.58182 52.341 8.58182ZM52.341 21.6C49.8863 21.6 47.7927 19.5636 47.7927 16.7273C47.7927 13.8182 49.8863 11.8545 52.341 11.8545C54.7956 11.8545 56.8892 13.8182 56.8892 16.7273C56.8892 19.5636 54.7956 21.6 52.341 21.6Z" fill="white" fill-opacity="0.5"/>
<path d="M79.9914 0.363636H83.4568V24.8H79.9914V0.363636Z" fill="white" fill-opacity="0.5"/>
<path d="M94.1415 21.6C92.3367 21.6 91.1094 20.8 90.243 19.1273L101 14.6909L100.639 13.7455C99.9893 11.9273 97.8956 8.58182 93.7806 8.58182C89.6655 8.58182 86.2001 11.8545 86.2001 16.6545C86.2001 21.1636 89.5933 24.7273 94.1415 24.7273C97.8234 24.7273 99.9171 22.4727 100.856 21.1636L98.1122 19.3455C97.1737 20.7273 95.9464 21.6 94.1415 21.6ZM93.925 11.6364C95.3688 11.6364 96.5961 12.3636 96.9571 13.3818L89.7377 16.4364C89.6655 13.0909 92.1201 11.6364 93.925 11.6364Z" fill="white" fill-opacity="0.5"/>
</g>
<defs>
<clipPath id="clip0_1_76">
<rect width="101" height="32" fill="white"/>
</clipPath>
</defs>
</svg>
