<svg width="56" height="32" viewBox="0 0 56 32" fill="none" xmlns="http://www.w3.org/2000/svg">
<rect width="56" height="32" rx="6" fill="white"/>
<path d="M37.7009 18.4183C36.3647 23.7783 30.9343 27.0365 25.5819 25.7004C20.2217 24.3643 16.9634 18.934 18.2996 13.5817C19.6357 8.22169 25.0584 4.96347 30.4186 6.29958C35.7709 7.62787 39.037 13.0582 37.7009 18.4183Z" fill="url(#paint0_linear_1_16220)"/>
<path d="M32.7612 14.7539C32.9565 13.4258 31.9487 12.707 30.5581 12.2305L31.0112 10.4258L29.9175 10.1523L29.48 11.9102C29.1909 11.8398 28.894 11.7695 28.5972 11.707L29.0347 9.94141L27.9409 9.66797L27.4956 11.4648C27.2534 11.4102 27.019 11.3555 26.7925 11.3008V11.293L25.2769 10.918L24.9878 12.0898C24.9878 12.0898 25.8003 12.2773 25.7847 12.2852C26.23 12.3945 26.3081 12.6914 26.2925 12.9258L25.7769 14.9805C25.8081 14.9883 25.8472 14.9961 25.894 15.0195C25.855 15.0117 25.8159 15.0039 25.7769 14.9883L25.0581 17.8633C25.0034 17.9961 24.8628 18.1992 24.5581 18.1211C24.5659 18.1367 23.7612 17.9258 23.7612 17.9258L23.2144 19.1836L24.644 19.543C24.9097 19.6133 25.1675 19.6758 25.4253 19.7461L24.9722 21.5664L26.0659 21.8398L26.519 20.0352C26.8159 20.1133 27.1128 20.1914 27.394 20.2617L26.9487 22.0586L28.0425 22.332L28.4956 20.5117C30.3706 20.8633 31.7769 20.7227 32.3628 19.0273C32.8394 17.668 32.3394 16.8789 31.355 16.3633C32.0815 16.1992 32.6206 15.7227 32.7612 14.7539ZM30.2534 18.2695C29.9175 19.6289 27.6206 18.8945 26.8784 18.707L27.48 16.293C28.2222 16.4805 30.6128 16.8477 30.2534 18.2695ZM30.5972 14.7305C30.2847 15.9727 28.3784 15.3398 27.7612 15.1836L28.3081 12.9961C28.9253 13.1523 30.9175 13.4414 30.5972 14.7305Z" fill="white"/>
<defs>
<linearGradient id="paint0_linear_1_16220" x1="27.9947" y1="5.99529" x2="27.9947" y2="25.998" gradientUnits="userSpaceOnUse">
<stop stop-color="#F9AA4B"/>
<stop offset="1" stop-color="#F7931A"/>
</linearGradient>
</defs>
</svg>
