<svg width="45" height="52" viewBox="0 0 45 52" fill="none" xmlns="http://www.w3.org/2000/svg">
<path d="M22.506 2.25418C22.8833 1.71323 23.3681 1.25584 23.93 0.910555C24.4919 0.565266 25.119 0.339489 25.7721 0.247308C26.4251 0.155128 27.0902 0.198524 27.7258 0.374788C28.3613 0.551051 28.9537 0.856401 29.466 1.27178L39.93 9.76778C40.865 10.5265 41.4807 11.6089 41.6549 12.8003C41.8292 13.9917 41.5493 15.2051 40.8708 16.1998H36.9668L38.2148 14.411C38.4471 14.0796 38.5452 13.6726 38.4894 13.2718C38.4336 12.871 38.228 12.5062 37.914 12.251L32.5252 7.87978L26.778 16.1998H22.8836L30.0324 5.85738L27.4468 3.75818C27.2761 3.61967 27.0787 3.51782 26.8669 3.45898C26.6551 3.40014 26.4334 3.38558 26.2157 3.41621C25.9981 3.44683 25.789 3.52199 25.6017 3.63698C25.4143 3.75198 25.2527 3.90435 25.1268 4.08458L16.6756 16.1966H12.7716L22.506 2.25418ZM33.6996 35.3998C33.2753 35.3998 32.8683 35.5684 32.5682 35.8684C32.2682 36.1685 32.0996 36.5754 32.0996 36.9998C32.0996 37.4241 32.2682 37.8311 32.5682 38.1312C32.8683 38.4312 33.2753 38.5998 33.6996 38.5998H36.8996C37.324 38.5998 37.7309 38.4312 38.031 38.1312C38.331 37.8311 38.4996 37.4241 38.4996 36.9998C38.4996 36.5754 38.331 36.1685 38.031 35.8684C37.7309 35.5684 37.324 35.3998 36.8996 35.3998H33.6996ZM4.89961 12.9998H11.8404L9.60041 16.1998H4.89961C4.47526 16.1998 4.0683 16.3684 3.76824 16.6684C3.46818 16.9685 3.29961 17.3754 3.29961 17.7998C3.29961 18.2241 3.46818 18.6311 3.76824 18.9312C4.0683 19.2312 4.47526 19.3998 4.89961 19.3998H38.4996C40.197 19.3998 41.8249 20.0741 43.0251 21.2743C44.2253 22.4745 44.8996 24.1024 44.8996 25.7998V44.9998C44.8996 46.6972 44.2253 48.325 43.0251 49.5253C41.8249 50.7255 40.197 51.3998 38.4996 51.3998H8.09961C5.97788 51.3998 3.94305 50.5569 2.44276 49.0566C0.942464 47.5563 0.0996094 45.5215 0.0996094 43.3998V17.7998C0.0996094 16.5267 0.605322 15.3058 1.5055 14.4057C2.40567 13.5055 3.62657 12.9998 4.89961 12.9998ZM3.29961 43.3998C3.29961 44.6728 3.80532 45.8937 4.7055 46.7939C5.60567 47.6941 6.82657 48.1998 8.09961 48.1998H38.4996C39.3483 48.1998 40.1622 47.8626 40.7624 47.2625C41.3625 46.6624 41.6996 45.8485 41.6996 44.9998V25.7998C41.6996 24.9511 41.3625 24.1372 40.7624 23.537C40.1622 22.9369 39.3483 22.5998 38.4996 22.5998H4.89961C4.33961 22.5998 3.79881 22.5038 3.29961 22.3278V43.3998Z" fill="white"/>
</svg>
