<svg width="55" height="56" viewBox="0 0 55 56" fill="none" xmlns="http://www.w3.org/2000/svg">
<path d="M51.6 22.05C50.625 21.025 49.625 19.975 49.225 19C48.825 18.025 48.825 16.75 48.8 15.325C48.775 13 48.725 10.325 46.95 8.55C45.175 6.775 42.5 6.725 40.175 6.7C38.75 6.675 37.4 6.65 36.5 6.275C35.6 5.9 34.475 4.875 33.45 3.9C31.8 2.3 29.9 0.5 27.5 0.5C25.1 0.5 23.2 2.3 21.55 3.9C20.525 4.875 19.475 5.875 18.5 6.275C17.525 6.675 16.25 6.675 14.825 6.7C12.5 6.725 9.825 6.775 8.05 8.55C6.275 10.325 6.225 13 6.2 15.325C6.175 16.75 6.15 18.1 5.775 19C5.4 19.9 4.375 21.025 3.4 22.05C1.8 23.7 0 25.6 0 28C0 30.4 1.8 32.3 3.4 33.95C4.375 34.975 5.375 36.025 5.775 37C6.175 37.975 6.175 39.25 6.2 40.675C6.225 43 6.275 45.675 8.05 47.45C9.825 49.225 12.5 49.275 14.825 49.3C16.25 49.325 17.6 49.35 18.5 49.725C19.4 50.1 20.525 51.125 21.55 52.1C23.2 53.7 25.1 55.5 27.5 55.5C29.9 55.5 31.8 53.7 33.45 52.1C34.475 51.125 35.525 50.125 36.5 49.725C37.475 49.325 38.75 49.325 40.175 49.3C42.5 49.275 45.175 49.225 46.95 47.45C48.725 45.675 48.775 43 48.8 40.675C48.825 39.25 48.85 37.9 49.225 37C49.6 36.1 50.625 34.975 51.6 33.95C53.2 32.3 55 30.4 55 28C55 25.6 53.2 23.7 51.6 22.05ZM49.45 31.875C48.275 33.1 47.075 34.35 46.45 35.85C45.825 37.35 45.825 38.975 45.8 40.625C45.775 42.275 45.75 44.4 44.825 45.325C43.9 46.25 41.975 46.275 40.125 46.3C38.275 46.325 36.775 46.35 35.35 46.95C33.925 47.55 32.6 48.775 31.375 49.95C30.15 51.125 28.7 52.5 27.5 52.5C26.3 52.5 24.95 51.2 23.625 49.95C22.3 48.7 21.15 47.575 19.65 46.95C18.15 46.325 16.525 46.325 14.875 46.3C13.225 46.275 11.1 46.25 10.175 45.325C9.25 44.4 9.225 42.475 9.2 40.625C9.175 38.775 9.15 37.275 8.55 35.85C7.95 34.425 6.725 33.1 5.55 31.875C4.375 30.65 3 29.2 3 28C3 26.8 4.3 25.45 5.55 24.125C6.8 22.8 7.925 21.65 8.55 20.15C9.175 18.65 9.175 17.025 9.2 15.375C9.225 13.725 9.25 11.6 10.175 10.675C11.1 9.75 13.025 9.725 14.875 9.7C16.725 9.675 18.225 9.65 19.65 9.05C21.075 8.45 22.4 7.225 23.625 6.05C24.85 4.875 26.3 3.5 27.5 3.5C28.7 3.5 30.05 4.8 31.375 6.05C32.7 7.3 33.85 8.425 35.35 9.05C36.85 9.675 38.475 9.675 40.125 9.7C41.775 9.725 43.9 9.75 44.825 10.675C45.75 11.6 45.775 13.525 45.8 15.375C45.825 17.225 45.85 18.725 46.45 20.15C47.05 21.575 48.275 22.9 49.45 24.125C50.625 25.35 52 26.8 52 28C52 29.2 50.7 30.55 49.45 31.875ZM39.575 20.975C39.7109 21.1155 39.8175 21.2816 39.8886 21.4636C39.9597 21.6457 39.9939 21.8401 39.9893 22.0355C39.9846 22.2309 39.9412 22.4234 39.8615 22.6018C39.7818 22.7803 39.6674 22.9411 39.525 23.075L24.875 37.075C24.5898 37.342 24.2156 37.4935 23.825 37.5C23.4405 37.4998 23.0718 37.347 22.8 37.075L15.475 30.075C15.1899 29.8032 15.0245 29.4292 15.0151 29.0354C15.0057 28.6415 15.1532 28.2601 15.425 27.975C15.6968 27.6899 16.0708 27.5245 16.4646 27.5151C16.8585 27.5057 17.2399 27.6532 17.525 27.925L23.825 33.925L37.475 20.925C37.6155 20.7891 37.7816 20.6825 37.9636 20.6114C38.1457 20.5403 38.3401 20.5061 38.5355 20.5107C38.7309 20.5154 38.9234 20.5588 39.1018 20.6385C39.2803 20.7182 39.4411 20.8326 39.575 20.975Z" fill="white"/>
</svg>
