<svg width="47" height="46" viewBox="0 0 47 46" fill="none" xmlns="http://www.w3.org/2000/svg">
<path d="M45.8837 21.6904L44.8803 27.7336L42.547 26.7769C41.077 26.1936 39.4437 26.1936 37.9737 26.7769L31.487 29.4369C30.6003 29.8103 29.877 30.8837 29.877 31.8637V36.9738C29.877 39.8905 30.9503 42.7137 32.7937 45.0004H11.4203C8.22365 45.0004 5.21369 42.4572 4.67702 39.3072L1.737 21.6904C1.36366 19.5204 2.4603 16.6037 4.18697 15.227L19.5403 2.95365C21.897 1.06365 25.7237 1.06367 28.0803 2.977L43.4337 15.227C45.137 16.6037 46.257 19.5204 45.8837 21.6904Z" stroke="#05422C" stroke-width="1.5" stroke-linecap="round" stroke-linejoin="round"/>
</svg>
