<svg width="50" height="20" viewBox="0 0 50 20" fill="none" xmlns="http://www.w3.org/2000/svg">
<path d="M25.8159 7.23432C25.7888 9.37098 27.72 10.5634 29.1749 11.2723C30.6697 11.9997 31.1718 12.4661 31.1661 13.1166C31.1547 14.1121 29.9737 14.5515 28.8682 14.5686C26.9398 14.5985 25.8187 14.048 24.9273 13.6315L24.2326 16.8821C25.1269 17.2943 26.7829 17.6537 28.5002 17.6694C32.5311 17.6694 35.1684 15.6797 35.1826 12.5945C35.1983 8.67921 29.7668 8.4624 29.8039 6.71228C29.8168 6.18169 30.3231 5.61543 31.4328 5.47137C31.9819 5.39862 33.4981 5.343 35.2169 6.13462L35.8915 2.98953C34.9673 2.65292 33.7791 2.33057 32.3 2.33057C28.5059 2.33057 25.8373 4.34741 25.8159 7.23432ZM42.3743 2.60157C41.6383 2.60157 41.0178 3.0309 40.7411 3.68987L34.983 17.4384H39.0109L39.8125 15.2233H44.7349L45.1998 17.4384H48.75L45.652 2.60157H42.3743ZM42.9377 6.60959L44.1001 12.1809H40.9165L42.9377 6.60959ZM20.9321 2.60157L17.757 17.4384H21.5953L24.7689 2.60157H20.9321ZM15.2538 2.60157L11.2586 12.7001L9.64259 4.11349C9.45289 3.15499 8.70406 2.60157 7.8725 2.60157H1.34129L1.25 3.03232C2.59076 3.3233 4.11409 3.79257 5.03693 4.29464C5.60177 4.6013 5.76294 4.86945 5.94837 5.59831L9.00929 17.4384H13.0658L19.2847 2.60157H15.2538Z" fill="url(#paint0_linear_1_92)"/>
<defs>
<linearGradient id="paint0_linear_1_92" x1="23.0877" y1="17.9772" x2="23.5317" y2="2.2239" gradientUnits="userSpaceOnUse">
<stop stop-color="#222357"/>
<stop offset="1" stop-color="#254AA5"/>
</linearGradient>
</defs>
</svg>
