<svg width="18" height="18" viewBox="0 0 18 18" fill="none" xmlns="http://www.w3.org/2000/svg">
<path d="M14.25 12.125H16V12.75C16 13.5657 15.4464 14.2483 14.6932 14.4437C14.4345 13.1948 13.3232 12.25 12 12.25C10.657 12.25 9.5323 13.2233 9.29577 14.5H8.70423C8.4677 13.2233 7.34299 12.25 6 12.25C4.6768 12.25 3.5655 13.1948 3.30681 14.4437C2.55363 14.2483 2 13.5657 2 12.75V11.25C2 11.1136 2.11364 11 2.25 11H9.375C10.6861 11 11.75 9.93614 11.75 8.625V4.5C11.75 4.36364 11.8636 4.25 12 4.25H12.63C12.9869 4.25 13.3189 4.44329 13.5018 4.75721C13.5021 4.75766 13.5023 4.75811 13.5026 4.75857L13.743 5.17929C12.6752 5.4117 11.875 6.36285 11.875 7.5V9.75C11.875 11.0611 12.9389 12.125 14.25 12.125Z" fill="#05422C" stroke="#05422C"/>
<path d="M7 15C7 15.5523 6.55228 16 6 16C5.44772 16 5 15.5523 5 15C5 14.4477 5.44772 14 6 14C6.55228 14 7 14.4477 7 15Z" fill="#C3D2CC" stroke="#C3D2CC"/>
<path d="M13 15C13 15.5523 12.5523 16 12 16C11.4477 16 11 15.5523 11 15C11 14.4477 11.4477 14 12 14C12.5523 14 13 14.4477 13 15Z" fill="#C3D2CC" stroke="#C3D2CC"/>
<path d="M16.5 9.3975V10.5H14.25C13.8375 10.5 13.5 10.1625 13.5 9.75V7.5C13.5 7.0875 13.8375 6.75 14.25 6.75H15.2175L16.305 8.655C16.4325 8.88 16.5 9.135 16.5 9.3975Z" fill="#C3D2CC"/>
<path d="M9.81 1.5H4.2675C2.925 1.5 1.8 2.46 1.5525 3.735H4.83C5.115 3.735 5.34 3.9675 5.34 4.2525C5.34 4.5375 5.115 4.7625 4.83 4.7625H1.5V5.7975H3.45C3.735 5.7975 3.9675 6.03 3.9675 6.315C3.9675 6.6 3.735 6.825 3.45 6.825H1.5V7.86H2.0775C2.3625 7.86 2.595 8.0925 2.595 8.3775C2.595 8.6625 2.3625 8.8875 2.0775 8.8875H1.5V9.06C1.5 9.4725 1.8375 9.81 2.25 9.81H9.1125C9.8775 9.81 10.5 9.1875 10.5 8.4225V2.19C10.5 1.8075 10.1925 1.5 9.81 1.5Z" fill="#05422C"/>
<path d="M1.5525 3.73535H1.44H0.705C0.42 3.73535 0.1875 3.96785 0.1875 4.25285C0.1875 4.53785 0.42 4.76285 0.705 4.76285H1.3875H1.5V4.26785C1.5 4.08785 1.5225 3.90785 1.5525 3.73535Z" fill="#05422C"/>
<path d="M1.3875 5.79785H0.705C0.42 5.79785 0.1875 6.03035 0.1875 6.31535C0.1875 6.60035 0.42 6.82535 0.705 6.82535H1.3875H1.5V5.79785H1.3875Z" fill="#05422C"/>
<path d="M1.3875 7.86035H0.705C0.42 7.86035 0.1875 8.09285 0.1875 8.37785C0.1875 8.66285 0.42 8.88785 0.705 8.88785H1.3875H1.5V7.86035H1.3875Z" fill="#05422C"/>
</svg>
