<svg width="21" height="20" viewBox="0 0 21 20" fill="none" xmlns="http://www.w3.org/2000/svg">
<path d="M10.5003 15.8333C13.722 15.8333 16.3337 13.2217 16.3337 10C16.3337 6.77834 13.722 4.16667 10.5003 4.16667C7.27866 4.16667 4.66699 6.77834 4.66699 10C4.66699 13.2217 7.27866 15.8333 10.5003 15.8333Z" fill="#060709"/>
<path d="M10.4997 19.1333C10.0413 19.1333 9.66634 18.7917 9.66634 18.3333V18.2667C9.66634 17.8083 10.0413 17.4333 10.4997 17.4333C10.958 17.4333 11.333 17.8083 11.333 18.2667C11.333 18.725 10.958 19.1333 10.4997 19.1333ZM16.4497 16.7833C16.233 16.7833 16.0247 16.7 15.858 16.5417L15.7497 16.4333C15.4247 16.1083 15.4247 15.5833 15.7497 15.2583C16.0747 14.9333 16.5997 14.9333 16.9247 15.2583L17.033 15.3667C17.358 15.6917 17.358 16.2167 17.033 16.5417C16.8747 16.7 16.6663 16.7833 16.4497 16.7833ZM4.54967 16.7833C4.33301 16.7833 4.12467 16.7 3.95801 16.5417C3.63301 16.2167 3.63301 15.6917 3.95801 15.3667L4.06634 15.2583C4.39134 14.9333 4.91634 14.9333 5.24134 15.2583C5.56634 15.5833 5.56634 16.1083 5.24134 16.4333L5.13301 16.5417C4.97467 16.7 4.75801 16.7833 4.54967 16.7833ZM18.833 10.8333H18.7663C18.308 10.8333 17.933 10.4583 17.933 9.99999C17.933 9.54166 18.308 9.16666 18.7663 9.16666C19.2247 9.16666 19.633 9.54166 19.633 9.99999C19.633 10.4583 19.2913 10.8333 18.833 10.8333ZM2.23301 10.8333H2.16634C1.70801 10.8333 1.33301 10.4583 1.33301 9.99999C1.33301 9.54166 1.70801 9.16666 2.16634 9.16666C2.62467 9.16666 3.03301 9.54166 3.03301 9.99999C3.03301 10.4583 2.69134 10.8333 2.23301 10.8333ZM16.3413 4.99166C16.1247 4.99166 15.9163 4.90833 15.7497 4.74999C15.4247 4.42499 15.4247 3.89999 15.7497 3.57499L15.858 3.46666C16.183 3.14166 16.708 3.14166 17.033 3.46666C17.358 3.79166 17.358 4.31666 17.033 4.64166L16.9247 4.74999C16.7663 4.90833 16.558 4.99166 16.3413 4.99166ZM4.65801 4.99166C4.44134 4.99166 4.23301 4.90833 4.06634 4.74999L3.95801 4.63333C3.63301 4.30833 3.63301 3.78333 3.95801 3.45833C4.28301 3.13333 4.80801 3.13333 5.13301 3.45833L5.24134 3.56666C5.56634 3.89166 5.56634 4.41666 5.24134 4.74166C5.08301 4.90833 4.86634 4.99166 4.65801 4.99166ZM10.4997 2.53333C10.0413 2.53333 9.66634 2.19166 9.66634 1.73333V1.66666C9.66634 1.20833 10.0413 0.833328 10.4997 0.833328C10.958 0.833328 11.333 1.20833 11.333 1.66666C11.333 2.12499 10.958 2.53333 10.4997 2.53333Z" fill="#060709"/>
</svg>
