<svg width="13" height="13" viewBox="0 0 13 13" fill="none" xmlns="http://www.w3.org/2000/svg">
<path d="M7.03195 2.25531L7.91195 4.01531C8.03195 4.26031 8.35195 4.49531 8.62195 4.54031L10.2169 4.80531C11.2369 4.97531 11.4769 5.71531 10.7419 6.44531L9.50195 7.68531C9.29195 7.89531 9.17695 8.30031 9.24195 8.59031L9.59695 10.1253C9.87695 11.3403 9.23195 11.8103 8.15695 11.1753L6.66195 10.2903C6.39195 10.1303 5.94695 10.1303 5.67195 10.2903L4.17695 11.1753C3.10695 11.8103 2.45695 11.3353 2.73695 10.1253L3.09195 8.59031C3.15695 8.30031 3.04195 7.89531 2.83195 7.68531L1.59195 6.44531C0.861947 5.71531 1.09695 4.97531 2.11695 4.80531L3.71195 4.54031C3.97695 4.49531 4.29695 4.26031 4.41695 4.01531L5.29695 2.25531C5.77695 1.30031 6.55695 1.30031 7.03195 2.25531Z" fill="#F2BC1B" stroke="#F2BC1B" stroke-width="1.5" stroke-linecap="round" stroke-linejoin="round"/>
</svg>
