<svg width="13" height="13" viewBox="0 0 13 13" fill="none" xmlns="http://www.w3.org/2000/svg">
<path d="M7.69845 2.25531L8.57845 4.01531C8.69845 4.26031 9.01845 4.49531 9.28845 4.54031L10.8835 4.80531C11.9035 4.97531 12.1434 5.71531 11.4085 6.44531L10.1685 7.68531C9.95845 7.89531 9.84345 8.30031 9.90845 8.59031L10.2635 10.1253C10.5435 11.3403 9.89845 11.8103 8.82345 11.1753L7.32845 10.2903C7.05845 10.1303 6.61345 10.1303 6.33845 10.2903L4.84345 11.1753C3.77345 11.8103 3.12345 11.3353 3.40345 10.1253L3.75845 8.59031C3.82345 8.30031 3.70845 7.89531 3.49845 7.68531L2.25845 6.44531C1.52845 5.71531 1.76345 4.97531 2.78345 4.80531L4.37845 4.54031C4.64345 4.49531 4.96345 4.26031 5.08345 4.01531L5.96345 2.25531C6.44345 1.30031 7.22345 1.30031 7.69845 2.25531Z" fill="#F2BC1B" stroke="#F2BC1B" stroke-width="1.5" stroke-linecap="round" stroke-linejoin="round"/>
</svg>
