<svg width="13" height="13" viewBox="0 0 13 13" fill="none" xmlns="http://www.w3.org/2000/svg">
<path d="M7.36544 2.25507L8.24544 4.01507C8.36544 4.26007 8.68544 4.49507 8.95544 4.54007L10.5504 4.80507C11.5704 4.97507 11.8104 5.71507 11.0754 6.44507L9.83544 7.68507C9.62544 7.89507 9.51044 8.30007 9.57544 8.59007L9.93044 10.1251C10.2104 11.3401 9.56544 11.8101 8.49044 11.1751L6.99544 10.2901C6.72544 10.1301 6.28044 10.1301 6.00544 10.2901L4.51044 11.1751C3.44044 11.8101 2.79044 11.3351 3.07044 10.1251L3.42544 8.59007C3.49044 8.30007 3.37544 7.89507 3.16544 7.68507L1.92544 6.44507C1.19544 5.71507 1.43044 4.97507 2.45044 4.80507L4.04544 4.54007C4.31044 4.49507 4.63044 4.26007 4.75044 4.01507L5.63044 2.25507C6.11044 1.30007 6.89044 1.30007 7.36544 2.25507Z" fill="#F2BC1B" stroke="#F2BC1B" stroke-width="1.5" stroke-linecap="round" stroke-linejoin="round"/>
</svg>
