<svg width="11" height="10" viewBox="0 0 11 10" fill="none" xmlns="http://www.w3.org/2000/svg">
<path d="M6.22104 1.46211L6.95437 2.92878C7.05437 3.13294 7.32104 3.32878 7.54604 3.36628L8.87521 3.58711C9.72521 3.72878 9.92521 4.34544 9.31271 4.95378L8.27937 5.98711C8.10437 6.16211 8.00854 6.49961 8.06271 6.74128L8.35854 8.02044C8.59187 9.03294 8.05437 9.42461 7.15854 8.89544L5.91271 8.15794C5.68771 8.02461 5.31687 8.02461 5.08771 8.15794L3.84187 8.89544C2.95021 9.42461 2.40854 9.02878 2.64187 8.02044L2.93771 6.74128C2.99187 6.49961 2.89604 6.16211 2.72104 5.98711L1.68771 4.95378C1.07937 4.34544 1.27521 3.72878 2.12521 3.58711L3.45437 3.36628C3.67521 3.32878 3.94187 3.13294 4.04187 2.92878L4.77521 1.46211C5.17521 0.666276 5.82521 0.666276 6.22104 1.46211Z" fill="#F2BC1B" stroke="#F2BC1B" stroke-width="1.5" stroke-linecap="round" stroke-linejoin="round"/>
</svg>
